G04 #@! TF.FileFunction,Legend,Top*
%FSLAX46Y46*%
G04 Gerber Fmt 4.6, Leading zero omitted, Abs format (unit mm)*
G04 Created by KiCad (PCBNEW 4.0.0-rc1-stable) date 9/23/2015 9:03:36 PM*
%MOMM*%
G01*
G04 APERTURE LIST*
%ADD10C,0.100000*%
%ADD11C,0.300000*%
%ADD12C,0.150000*%
%ADD13C,0.381000*%
%ADD14C,0.304800*%
G04 APERTURE END LIST*
D10*
D11*
X149538858Y-100143571D02*
X150396001Y-100143571D01*
X149967430Y-101643571D02*
X149967430Y-100143571D01*
X151753144Y-101500714D02*
X151681715Y-101572143D01*
X151467429Y-101643571D01*
X151324572Y-101643571D01*
X151110287Y-101572143D01*
X150967429Y-101429286D01*
X150896001Y-101286429D01*
X150824572Y-101000714D01*
X150824572Y-100786429D01*
X150896001Y-100500714D01*
X150967429Y-100357857D01*
X151110287Y-100215000D01*
X151324572Y-100143571D01*
X151467429Y-100143571D01*
X151681715Y-100215000D01*
X151753144Y-100286429D01*
X152253144Y-100143571D02*
X153253144Y-100143571D01*
X152610287Y-101643571D01*
X154467429Y-100643571D02*
X154467429Y-101643571D01*
X154110286Y-100072143D02*
X153753143Y-101143571D01*
X154681715Y-101143571D01*
X153205571Y-113184284D02*
X151705571Y-113184284D01*
X151705571Y-112827141D01*
X151777000Y-112612856D01*
X151919857Y-112469998D01*
X152062714Y-112398570D01*
X152348429Y-112327141D01*
X152562714Y-112327141D01*
X152848429Y-112398570D01*
X152991286Y-112469998D01*
X153134143Y-112612856D01*
X153205571Y-112827141D01*
X153205571Y-113184284D01*
X153134143Y-111755713D02*
X153205571Y-111541427D01*
X153205571Y-111184284D01*
X153134143Y-111041427D01*
X153062714Y-110969998D01*
X152919857Y-110898570D01*
X152777000Y-110898570D01*
X152634143Y-110969998D01*
X152562714Y-111041427D01*
X152491286Y-111184284D01*
X152419857Y-111469998D01*
X152348429Y-111612856D01*
X152277000Y-111684284D01*
X152134143Y-111755713D01*
X151991286Y-111755713D01*
X151848429Y-111684284D01*
X151777000Y-111612856D01*
X151705571Y-111469998D01*
X151705571Y-111112856D01*
X151777000Y-110898570D01*
X153205571Y-109469999D02*
X153205571Y-110327142D01*
X153205571Y-109898570D02*
X151705571Y-109898570D01*
X151919857Y-110041427D01*
X152062714Y-110184285D01*
X152134143Y-110327142D01*
X151705571Y-108184285D02*
X151705571Y-108469999D01*
X151777000Y-108612856D01*
X151848429Y-108684285D01*
X152062714Y-108827142D01*
X152348429Y-108898571D01*
X152919857Y-108898571D01*
X153062714Y-108827142D01*
X153134143Y-108755714D01*
X153205571Y-108612856D01*
X153205571Y-108327142D01*
X153134143Y-108184285D01*
X153062714Y-108112856D01*
X152919857Y-108041428D01*
X152562714Y-108041428D01*
X152419857Y-108112856D01*
X152348429Y-108184285D01*
X152277000Y-108327142D01*
X152277000Y-108612856D01*
X152348429Y-108755714D01*
X152419857Y-108827142D01*
X152562714Y-108898571D01*
X151705571Y-107541428D02*
X151705571Y-106612857D01*
X152277000Y-107112857D01*
X152277000Y-106898571D01*
X152348429Y-106755714D01*
X152419857Y-106684285D01*
X152562714Y-106612857D01*
X152919857Y-106612857D01*
X153062714Y-106684285D01*
X153134143Y-106755714D01*
X153205571Y-106898571D01*
X153205571Y-107327143D01*
X153134143Y-107470000D01*
X153062714Y-107541428D01*
X153205571Y-105184286D02*
X153205571Y-106041429D01*
X153205571Y-105612857D02*
X151705571Y-105612857D01*
X151919857Y-105755714D01*
X152062714Y-105898572D01*
X152134143Y-106041429D01*
D12*
X142895000Y-99310000D02*
X142895000Y-96310000D01*
X145395000Y-96310000D02*
X145395000Y-99310000D01*
X142595000Y-102870000D02*
X142595000Y-101320000D01*
X142595000Y-101320000D02*
X145695000Y-101320000D01*
X145695000Y-101320000D02*
X145695000Y-102870000D01*
X145415000Y-104140000D02*
X145415000Y-114300000D01*
X145415000Y-114300000D02*
X142875000Y-114300000D01*
X142875000Y-114300000D02*
X142875000Y-104140000D01*
X145415000Y-104140000D02*
X142875000Y-104140000D01*
X160020000Y-109954060D02*
X160020000Y-108953300D01*
X162519360Y-112354360D02*
G75*
G03X162519360Y-112354360I-2499360J0D01*
G01*
X160020000Y-100429060D02*
X160020000Y-99428300D01*
X162519360Y-102829360D02*
G75*
G03X162519360Y-102829360I-2499360J0D01*
G01*
X148598000Y-102480000D02*
X148598000Y-103750000D01*
X155948000Y-102480000D02*
X155948000Y-103750000D01*
X155948000Y-114690000D02*
X155948000Y-113420000D01*
X148598000Y-114690000D02*
X148598000Y-113420000D01*
X148598000Y-102480000D02*
X155948000Y-102480000D01*
X148598000Y-114690000D02*
X155948000Y-114690000D01*
X148598000Y-103750000D02*
X147663000Y-103750000D01*
D13*
X156999940Y-95791020D02*
X157700980Y-95791020D01*
X155000960Y-95791020D02*
X155300680Y-95791020D01*
X153200100Y-95791020D02*
X153400760Y-95791020D01*
X151500840Y-95791020D02*
X151599900Y-95791020D01*
X149600920Y-95791020D02*
X149699980Y-95791020D01*
X147099020Y-95791020D02*
X147800060Y-95791020D01*
X153901140Y-94790260D02*
X153901140Y-95488760D01*
X150898860Y-94790260D02*
X150898860Y-95488760D01*
X147099020Y-99590860D02*
X157700980Y-99590860D01*
X157734000Y-95885000D02*
X157734000Y-99568000D01*
X147066000Y-99568000D02*
X147066000Y-95885000D01*
X157734000Y-94742000D02*
X157734000Y-95885000D01*
X147066000Y-95885000D02*
X147066000Y-94742000D01*
X152400000Y-94742000D02*
X147066000Y-94742000D01*
X152400000Y-94742000D02*
X157734000Y-94742000D01*
D12*
D14*
M02*
