M48
;DRILL file {KiCad 4.0.0-rc1-stable} date 9/23/2015 9:04:29 PM
;FORMAT={-:-/ absolute / inch / decimal}
FMAT,2
INCH,TZ
T1C0.025
T2C0.031
T3C0.032
T4C0.039
T5C0.040
T6C0.043
%
G90
G05
M72
T1
X5.95Y-4.1
T2
X5.675Y-3.9
X5.845Y-4.125
X5.845Y-4.225
X5.845Y-4.325
X5.845Y-4.425
X6.145Y-4.125
X6.145Y-4.225
X6.145Y-4.325
X6.145Y-4.425
T3
X5.675Y-3.8016
T4
X6.3Y-3.8515
X6.3Y-4.0484
X6.3Y-4.2265
X6.3Y-4.4234
T5
X5.675Y-4.05
X5.675Y-4.15
X5.675Y-4.25
X5.675Y-4.35
X5.675Y-4.45
T6
X5.8543Y-3.8264
X5.9291Y-3.8264
X6.Y-3.8264
X6.0709Y-3.8264
X6.1457Y-3.8264
T0
M30
