G04 #@! TF.FileFunction,Legend,Bot*
%FSLAX46Y46*%
G04 Gerber Fmt 4.6, Leading zero omitted, Abs format (unit mm)*
G04 Created by KiCad (PCBNEW 4.0.0-rc1-stable) date 9/23/2015 9:03:36 PM*
%MOMM*%
G01*
G04 APERTURE LIST*
%ADD10C,0.100000*%
%ADD11C,0.187500*%
%ADD12C,0.300000*%
G04 APERTURE END LIST*
D10*
D11*
X147180999Y-110079286D02*
X147038142Y-110079286D01*
X146966714Y-110115000D01*
X146895285Y-110186429D01*
X146859571Y-110329286D01*
X146859571Y-110579286D01*
X146895285Y-110722143D01*
X146966714Y-110793571D01*
X147038142Y-110829286D01*
X147180999Y-110829286D01*
X147252428Y-110793571D01*
X147323857Y-110722143D01*
X147359571Y-110579286D01*
X147359571Y-110329286D01*
X147323857Y-110186429D01*
X147252428Y-110115000D01*
X147180999Y-110079286D01*
X146538143Y-110079286D02*
X146538143Y-110686429D01*
X146502428Y-110757857D01*
X146466714Y-110793571D01*
X146395285Y-110829286D01*
X146252428Y-110829286D01*
X146181000Y-110793571D01*
X146145285Y-110757857D01*
X146109571Y-110686429D01*
X146109571Y-110079286D01*
X145859571Y-110079286D02*
X145431000Y-110079286D01*
X145645286Y-110829286D02*
X145645286Y-110079286D01*
D12*
X161816856Y-99508571D02*
X160959713Y-99508571D01*
X161388284Y-101008571D02*
X161388284Y-99508571D01*
X159888285Y-100937143D02*
X160031142Y-101008571D01*
X160316856Y-101008571D01*
X160459713Y-100937143D01*
X160531142Y-100794286D01*
X160531142Y-100222857D01*
X160459713Y-100080000D01*
X160316856Y-100008571D01*
X160031142Y-100008571D01*
X159888285Y-100080000D01*
X159816856Y-100222857D01*
X159816856Y-100365714D01*
X160531142Y-100508571D01*
X159173999Y-101008571D02*
X159173999Y-100008571D01*
X159173999Y-100151429D02*
X159102571Y-100080000D01*
X158959713Y-100008571D01*
X158745428Y-100008571D01*
X158602571Y-100080000D01*
X158531142Y-100222857D01*
X158531142Y-101008571D01*
X158531142Y-100222857D02*
X158459713Y-100080000D01*
X158316856Y-100008571D01*
X158102571Y-100008571D01*
X157959713Y-100080000D01*
X157888285Y-100222857D01*
X157888285Y-101008571D01*
X157173999Y-100008571D02*
X157173999Y-101508571D01*
X157173999Y-100080000D02*
X157031142Y-100008571D01*
X156745428Y-100008571D01*
X156602571Y-100080000D01*
X156531142Y-100151429D01*
X156459713Y-100294286D01*
X156459713Y-100722857D01*
X156531142Y-100865714D01*
X156602571Y-100937143D01*
X156745428Y-101008571D01*
X157031142Y-101008571D01*
X157173999Y-100937143D01*
X154745428Y-100937143D02*
X154531142Y-101008571D01*
X154173999Y-101008571D01*
X154031142Y-100937143D01*
X153959713Y-100865714D01*
X153888285Y-100722857D01*
X153888285Y-100580000D01*
X153959713Y-100437143D01*
X154031142Y-100365714D01*
X154173999Y-100294286D01*
X154459713Y-100222857D01*
X154602571Y-100151429D01*
X154673999Y-100080000D01*
X154745428Y-99937143D01*
X154745428Y-99794286D01*
X154673999Y-99651429D01*
X154602571Y-99580000D01*
X154459713Y-99508571D01*
X154102571Y-99508571D01*
X153888285Y-99580000D01*
X152674000Y-100937143D02*
X152816857Y-101008571D01*
X153102571Y-101008571D01*
X153245428Y-100937143D01*
X153316857Y-100794286D01*
X153316857Y-100222857D01*
X153245428Y-100080000D01*
X153102571Y-100008571D01*
X152816857Y-100008571D01*
X152674000Y-100080000D01*
X152602571Y-100222857D01*
X152602571Y-100365714D01*
X153316857Y-100508571D01*
X151959714Y-100008571D02*
X151959714Y-101008571D01*
X151959714Y-100151429D02*
X151888286Y-100080000D01*
X151745428Y-100008571D01*
X151531143Y-100008571D01*
X151388286Y-100080000D01*
X151316857Y-100222857D01*
X151316857Y-101008571D01*
X150674000Y-100937143D02*
X150531143Y-101008571D01*
X150245428Y-101008571D01*
X150102571Y-100937143D01*
X150031143Y-100794286D01*
X150031143Y-100722857D01*
X150102571Y-100580000D01*
X150245428Y-100508571D01*
X150459714Y-100508571D01*
X150602571Y-100437143D01*
X150674000Y-100294286D01*
X150674000Y-100222857D01*
X150602571Y-100080000D01*
X150459714Y-100008571D01*
X150245428Y-100008571D01*
X150102571Y-100080000D01*
X148459714Y-99508571D02*
X147959714Y-101008571D01*
X147459714Y-99508571D01*
X146174000Y-101008571D02*
X147031143Y-101008571D01*
X146602571Y-101008571D02*
X146602571Y-99508571D01*
X146745428Y-99722857D01*
X146888286Y-99865714D01*
X147031143Y-99937143D01*
D11*
X147323857Y-108380571D02*
X147216714Y-108416286D01*
X147038143Y-108416286D01*
X146966714Y-108380571D01*
X146931000Y-108344857D01*
X146895285Y-108273429D01*
X146895285Y-108202000D01*
X146931000Y-108130571D01*
X146966714Y-108094857D01*
X147038143Y-108059143D01*
X147181000Y-108023429D01*
X147252428Y-107987714D01*
X147288143Y-107952000D01*
X147323857Y-107880571D01*
X147323857Y-107809143D01*
X147288143Y-107737714D01*
X147252428Y-107702000D01*
X147181000Y-107666286D01*
X147002428Y-107666286D01*
X146895285Y-107702000D01*
X146216714Y-108416286D02*
X146573857Y-108416286D01*
X146573857Y-107666286D01*
X145966714Y-108416286D02*
X145966714Y-107666286D01*
X145538142Y-108416286D02*
X145859571Y-107987714D01*
X145538142Y-107666286D02*
X145966714Y-108094857D01*
X147341714Y-105840571D02*
X147234571Y-105876286D01*
X147056000Y-105876286D01*
X146984571Y-105840571D01*
X146948857Y-105804857D01*
X146913142Y-105733429D01*
X146913142Y-105662000D01*
X146948857Y-105590571D01*
X146984571Y-105554857D01*
X147056000Y-105519143D01*
X147198857Y-105483429D01*
X147270285Y-105447714D01*
X147306000Y-105412000D01*
X147341714Y-105340571D01*
X147341714Y-105269143D01*
X147306000Y-105197714D01*
X147270285Y-105162000D01*
X147198857Y-105126286D01*
X147020285Y-105126286D01*
X146913142Y-105162000D01*
X146591714Y-105876286D02*
X146591714Y-105126286D01*
X146413142Y-105126286D01*
X146305999Y-105162000D01*
X146234571Y-105233429D01*
X146198856Y-105304857D01*
X146163142Y-105447714D01*
X146163142Y-105554857D01*
X146198856Y-105697714D01*
X146234571Y-105769143D01*
X146305999Y-105840571D01*
X146413142Y-105876286D01*
X146591714Y-105876286D01*
X145877428Y-105662000D02*
X145520285Y-105662000D01*
X145948856Y-105876286D02*
X145698856Y-105126286D01*
X145448856Y-105876286D01*
X147359571Y-102459286D02*
X146895285Y-102459286D01*
X147145285Y-102745000D01*
X147038143Y-102745000D01*
X146966714Y-102780714D01*
X146931000Y-102816429D01*
X146895285Y-102887857D01*
X146895285Y-103066429D01*
X146931000Y-103137857D01*
X146966714Y-103173571D01*
X147038143Y-103209286D01*
X147252428Y-103209286D01*
X147323857Y-103173571D01*
X147359571Y-103137857D01*
X146680999Y-102459286D02*
X146430999Y-103209286D01*
X146180999Y-102459286D01*
X146002428Y-102459286D02*
X145538142Y-102459286D01*
X145788142Y-102745000D01*
X145681000Y-102745000D01*
X145609571Y-102780714D01*
X145573857Y-102816429D01*
X145538142Y-102887857D01*
X145538142Y-103066429D01*
X145573857Y-103137857D01*
X145609571Y-103173571D01*
X145681000Y-103209286D01*
X145895285Y-103209286D01*
X145966714Y-103173571D01*
X146002428Y-103137857D01*
X147129428Y-113163000D02*
X147200857Y-113127286D01*
X147308000Y-113127286D01*
X147415143Y-113163000D01*
X147486571Y-113234429D01*
X147522286Y-113305857D01*
X147558000Y-113448714D01*
X147558000Y-113555857D01*
X147522286Y-113698714D01*
X147486571Y-113770143D01*
X147415143Y-113841571D01*
X147308000Y-113877286D01*
X147236571Y-113877286D01*
X147129428Y-113841571D01*
X147093714Y-113805857D01*
X147093714Y-113555857D01*
X147236571Y-113555857D01*
X146772286Y-113877286D02*
X146772286Y-113127286D01*
X146343714Y-113877286D01*
X146343714Y-113127286D01*
X145986572Y-113877286D02*
X145986572Y-113127286D01*
X145808000Y-113127286D01*
X145700857Y-113163000D01*
X145629429Y-113234429D01*
X145593714Y-113305857D01*
X145558000Y-113448714D01*
X145558000Y-113555857D01*
X145593714Y-113698714D01*
X145629429Y-113770143D01*
X145700857Y-113841571D01*
X145808000Y-113877286D01*
X145986572Y-113877286D01*
M02*
